<?xml version="1.0"?>
<svg xmlns="http://www.w3.org/2000/svg" viewBox="0 0 16 16">
    <path style="line-height:normal;text-indent:0;text-align:start;text-decoration-line:none;text-decoration-style:solid;text-decoration-color:#000;text-transform:none;block-progression:tb;isolation:auto;mix-blend-mode:normal" d="M 7.5 1 C 6.1272727 1 5 2.1272727 5 3.5 L 5 7.5 C 5 8.8727273 6.1272727 10 7.5 10 C 8.8727273 10 10 8.8727273 10 7.5 L 10 3.5 C 10 2.1272727 8.8727273 1 7.5 1 z M 7.5 2 C 8.3272727 2 9 2.6727273 9 3.5 L 9 7.5 C 9 8.3272727 8.3272727 9 7.5 9 C 6.6727273 9 6 8.3272727 6 7.5 L 6 3.5 C 6 2.6727273 6.6727273 2 7.5 2 z M 3 7 L 3 7.5 C 3 9.8014591 4.7630368 11.694903 7 11.949219 L 7 14 L 5 14 L 5 15 L 10 15 L 10 14 L 8 14 L 8 11.949219 C 10.236963 11.694903 12 9.8014591 12 7.5 L 12 7 L 11 7 L 11 7.5 C 11 9.4272727 9.4272727 11 7.5 11 C 5.5727273 11 4 9.4272727 4 7.5 L 4 7 L 3 7 z" font-weight="400" font-family="sans-serif" white-space="normal" overflow="visible"/>
</svg>
