<?xml version="1.0" encoding="utf-8"?>
<!-- Generator: Adobe Illustrator 22.1.0, SVG Export Plug-In . SVG Version: 6.00 Build 0)  -->
<svg version="1.1" id="thermosecure_x5F_logo" xmlns="http://www.w3.org/2000/svg" xmlns:xlink="http://www.w3.org/1999/xlink"
	 x="0px" y="0px" viewBox="0 0 1366 768" style="enable-background:new 0 0 1366 768;" xml:space="preserve">
<style type="text/css">
	.st0{fill:#FFFFFF;}
</style>
<g>
	<path class="st0" d="M380.7,279.9c-8,0-12.9,6.1-13.2,13.6h26.3C393.5,286.1,389.8,279.9,380.7,279.9z"/>
	<path class="st0" d="M493,279.9c-8.5,0-13.9,6.5-13.9,14.9c0,8.6,6.1,14.6,14,14.6c8.8,0,13.9-6.8,13.9-14.8
		C507,286.5,501.4,279.9,493,279.9z"/>
	<path class="st0" d="M685.9,279.9c-8,0-12.9,6.1-13.2,13.6H699C698.7,286.1,695,279.9,685.9,279.9z"/>
	<path class="st0" d="M315.7,269.5h-1.3v10.1h-6v1.1h6v21.6c0,6,1.7,8,6.2,8c0.8,0,2-0.1,2.8-0.5v-1.1c-0.9,0.3-1.8,0.4-2.8,0.4
		c-4.1,0-4.9-2.5-4.9-6.6v-21.8h8v-1.1h-8V269.5z"/>
	<path class="st0" d="M345,278.7c-6.9,0-11.3,4.3-12.8,9.1v-24.3h-1.3v46.2h1.3v-15.9c0-8.1,5.1-13.9,12.8-13.9
		c7.8,0,10.9,5.5,10.9,12.2v17.5h1.3v-17.8C357,282.2,351.1,278.7,345,278.7z"/>
	<path class="st0" d="M380.8,278.7c-9,0-14.7,6.7-14.7,16c0,7.3,4,15.8,14.7,15.8c7.2,0,11.7-3.7,13.6-8.3H393
		c-1.8,4-5.8,7.2-12.2,7.2c-7.6,0-13.3-5.3-13.4-14.8H395c0-0.5,0-1,0-1.3C395,287.5,392.1,278.7,380.8,278.7z M367.5,293.4
		c0.3-7.5,5.2-13.6,13.2-13.6c9.1,0,12.8,6.2,13.1,13.6H367.5z"/>
	<path class="st0" d="M405.3,288.5c0.1-2.3-0.1-7.4-0.1-8.9H404c0.1,2.2,0.1,5.6,0.1,10.3v19.9h1.3v-16.2c0-7.1,5.8-13.3,12.5-13.4
		v-1.3C411.4,278.9,406.8,283.8,405.3,288.5z"/>
	<path class="st0" d="M458.1,278.7c-6,0.1-9.6,3.7-11.2,7.7c-1.2-4.6-4.6-7.7-10.3-7.7c-6.4,0-9.7,4.2-11.2,8.2
		c0.1-1.3,0-5.6-0.1-7.4h-1.2c0.1,1.6,0.1,5.4,0.1,10v20.2h1.3v-16.6c0-6.7,3.7-13.1,11-13.1c7.3,0,9.4,5.5,9.4,9.5v20.2h1.3v-17.5
		c0-7.4,4.4-12.3,10.9-12.3c7.3,0,9.4,5.3,9.4,10.9v18.8h1.3v-19.1C468.8,281.5,463.8,278.7,458.1,278.7z"/>
	<path class="st0" d="M493,278.7c-8.8,0-15.3,6.7-15.3,16.1c0,8.7,6,15.7,15.2,15.7c10.1,0,15.4-7.7,15.4-16
		C508.3,286.1,502.4,278.7,493,278.7z M493,309.4c-7.9,0-14-6-14-14.6c0-8.4,5.5-14.9,13.9-14.9c8.4,0,14,6.7,14,14.7
		C507,302.6,501.9,309.4,493,309.4z"/>
	<path class="st0" d="M528.1,293.2c-7.9-1.4-10.4-2.7-10.4-7c0-2.7,2.1-6.4,9.1-6.4c7.6,0,9.5,3.9,10.1,7h1.3
		c-0.4-3.3-2.8-8.1-11.3-8.1c-7.8,0-10.4,4.3-10.4,7.6c0,3.6,1.2,6.2,11.3,8c9.3,1.6,10,4.7,10,7.7c0,4.8-4.1,7.4-10.4,7.4
		c-6,0-10.1-2.6-11.2-7.7h-1.3c0.7,4.9,4.9,8.9,12.5,8.9c7.2,0,11.7-3.2,11.7-8.6C538.9,297.9,537.2,294.9,528.1,293.2z"/>
	<path class="st0" d="M559.8,278.7c-9,0-14.7,6.7-14.7,16c0,7.3,4,15.8,14.7,15.8c6.8,0,11.6-3.6,13.8-11.8c0.2-0.7-0.3-1.5-1.1-1.5
		c-0.6,0-1.1,0.4-1.2,0.9c-0.9,5.4-5.3,10-11.4,10c-7.3,0-12.2-3.7-12.7-12.3c0-0.7,0.5-1.3,1.2-1.3l25.6,0c0-0.5,0-1,0-1.3
		C574,287.5,571.1,278.7,559.8,278.7z M561.7,288.3v2.5c0,0.7-0.6,1.3-1.3,1.3c-0.7,0-1.3-0.6-1.3-1.3v-2.5c-1-0.5-1.8-1.5-1.8-2.8
		c0-1.7,1.4-3.1,3.1-3.1s3.1,1.4,3.1,3.1C563.4,286.7,562.7,287.8,561.7,288.3z"/>
	<path class="st0" d="M595.5,279.9c7.1,0,10.7,3.8,12.2,8.6h1.3c-1-4.3-4.5-9.7-13.4-9.7c-8.9,0-14.8,7-14.8,16.1
		c0,8.5,5.1,15.7,14.9,15.7c7.3,0,11.4-3.7,13.3-9.5h-1.3c-2,5.2-5.6,8.3-11.9,8.3c-8.7,0-13.7-6.4-13.7-14.6
		C582.1,285.8,588,279.9,595.5,279.9z"/>
	<path class="st0" d="M643.1,279.6h-1.3v14.3c0,8.6-3.5,15.3-12.5,15.3c-7.8,0-10.7-5.1-10.7-11.1v-18.5h-1.3V298
		c0,9.8,6.2,12.4,11.9,12.4c6.8,0,10.6-3,12.6-9.4c-0.1,2.7,0,7.6,0.1,8.6h1.3c0-1.3-0.1-6.3-0.1-9.3V279.6z"/>
	<path class="st0" d="M655.5,288.5c0.1-2.3-0.1-7.4-0.1-8.9h-1.2c0.1,2.2,0.1,5.6,0.1,10.3v19.9h1.3v-16.2c0-7.1,5.8-13.3,12.5-13.4
		v-1.3C661.6,278.9,657,283.8,655.5,288.5z"/>
	<path class="st0" d="M700.2,293.3c0-5.8-2.9-14.6-14.2-14.6c-9,0-14.7,6.7-14.7,16c0,7.3,4,15.8,14.7,15.8c7.2,0,11.7-3.7,13.6-8.3
		h-1.4c-1.8,4-5.8,7.2-12.2,7.2c-7.6,0-13.3-5.3-13.4-14.8h27.6C700.2,294,700.2,293.6,700.2,293.3z M672.7,293.4
		c0.3-7.5,5.2-13.6,13.2-13.6c9.1,0,12.8,6.2,13.1,13.6H672.7z"/>
	<path class="st0" d="M560.3,282.4c-1.7,0-3.1,1.4-3.1,3.1c0,1.2,0.7,2.3,1.8,2.8v2.5c0,0.7,0.6,1.3,1.3,1.3c0.7,0,1.3-0.6,1.3-1.3
		v-2.5c1-0.5,1.8-1.5,1.8-2.8C563.4,283.8,562,282.4,560.3,282.4z"/>
</g>
</svg>
