<?xml version="1.0" encoding="utf-8"?>
<!-- Generator: Adobe Illustrator 21.1.0, SVG Export Plug-In . SVG Version: 6.00 Build 0)  -->
<svg version="1.1" id="thermosecure_x5F_logo" xmlns="http://www.w3.org/2000/svg" xmlns:xlink="http://www.w3.org/1999/xlink"
	 x="0px" y="0px" viewBox="0 0 415.5 61.3" style="enable-background:new 0 0 415.5 61.3;" xml:space="preserve">
<style type="text/css">
	.st0{fill:none;}
	.st1{fill:#FFFFFF;}
</style>
<g>
	<path class="st0" d="M84.5,23.5c-8,0-12.9,6.1-13.2,13.6h26.3C97.4,29.7,93.7,23.5,84.5,23.5z"/>
	<path class="st0" d="M196.9,23.5c-8.5,0-13.9,6.5-13.9,14.9c0,8.6,6.1,14.6,14,14.6c8.8,0,13.9-6.8,13.9-14.8
		C210.8,30.2,205.3,23.5,196.9,23.5z"/>
	<path class="st0" d="M389.8,23.5c-8,0-12.9,6.1-13.2,13.6h26.3C402.6,29.7,398.9,23.5,389.8,23.5z"/>
	<path d="M19.6,13.2h-1.3v10.1h-6v1.1h6V46c0,6,1.7,8,6.2,8c0.8,0,2-0.1,2.8-0.5v-1.1c-0.9,0.3-1.8,0.4-2.8,0.4
		c-4.1,0-4.9-2.5-4.9-6.6V24.4h8v-1.1h-8V13.2z"/>
	<path d="M48.8,22.4c-6.9,0-11.3,4.3-12.8,9.1V7.2h-1.3v46.2H36V37.5c0-8.1,5.1-13.9,12.8-13.9c7.8,0,10.9,5.5,10.9,12.2v17.5h1.3
		V35.6C60.9,25.8,55,22.4,48.8,22.4z"/>
	<path d="M84.7,22.4c-9,0-14.7,6.7-14.7,16c0,7.3,4,15.8,14.7,15.8c7.2,0,11.7-3.7,13.6-8.3h-1.4c-1.8,4-5.8,7.2-12.2,7.2
		c-7.6,0-13.3-5.3-13.4-14.8h27.6c0-0.5,0-1,0-1.3C98.9,31.2,95.9,22.4,84.7,22.4z M71.3,37.1c0.3-7.5,5.2-13.6,13.2-13.6
		c9.1,0,12.8,6.2,13.1,13.6H71.3z"/>
	<path d="M109.2,32.1c0.1-2.3-0.1-7.4-0.1-8.9h-1.2c0.1,2.2,0.1,5.6,0.1,10.3v19.9h1.3V37.2c0-7.1,5.8-13.3,12.5-13.4v-1.3
		C115.3,22.6,110.6,27.5,109.2,32.1z"/>
	<path d="M162,22.4c-6,0.1-9.6,3.7-11.2,7.7c-1.2-4.6-4.6-7.7-10.3-7.7c-6.4,0-9.7,4.2-11.2,8.2c0.1-1.3,0-5.6-0.1-7.4h-1.2
		c0.1,1.6,0.1,5.4,0.1,10v20.2h1.3V36.7c0-6.7,3.7-13.1,11-13.1c7.3,0,9.4,5.5,9.4,9.5v20.2h1.3V35.9c0-7.4,4.4-12.3,10.9-12.3
		c7.3,0,9.4,5.3,9.4,10.9v18.8h1.3V34.2C172.7,25.2,167.6,22.3,162,22.4z"/>
	<path d="M196.9,22.4c-8.8,0-15.3,6.7-15.3,16.1c0,8.7,6,15.7,15.2,15.7c10.1,0,15.4-7.7,15.4-16C212.2,29.8,206.3,22.4,196.9,22.4z
		 M196.9,53.1c-7.9,0-14-6-14-14.6c0-8.4,5.5-14.9,13.9-14.9c8.4,0,14,6.7,14,14.7C210.8,46.2,205.7,53.1,196.9,53.1z"/>
	<path d="M232,36.9c-7.9-1.4-10.4-2.7-10.4-7c0-2.7,2.1-6.4,9.1-6.4c7.6,0,9.5,3.9,10.1,7h1.3c-0.4-3.3-2.8-8.1-11.3-8.1
		c-7.8,0-10.4,4.3-10.4,7.6c0,3.6,1.2,6.2,11.3,8c9.3,1.6,10,4.7,10,7.7c0,4.8-4.1,7.4-10.4,7.4c-6,0-10.1-2.6-11.2-7.7h-1.3
		c0.7,4.9,4.9,8.9,12.5,8.9c7.2,0,11.7-3.2,11.7-8.6C242.8,41.5,241.1,38.5,232,36.9z"/>
	<path d="M263.7,22.4c-9,0-14.7,6.7-14.7,16c0,7.3,4,15.8,14.7,15.8c6.8,0,11.6-3.6,13.8-11.8c0.2-0.7-0.3-1.5-1.1-1.5
		c-0.6,0-1.1,0.4-1.2,0.9c-0.9,5.4-5.3,10-11.4,10c-7.3,0-12.2-3.7-12.7-12.3c0-0.7,0.5-1.3,1.2-1.3l25.6,0c0-0.5,0-1,0-1.3
		C277.9,31.2,275,22.4,263.7,22.4z M265.5,31.9v2.5c0,0.7-0.6,1.3-1.3,1.3c-0.7,0-1.3-0.6-1.3-1.3v-2.5c-1-0.5-1.8-1.5-1.8-2.8
		c0-1.7,1.4-3.1,3.1-3.1s3.1,1.4,3.1,3.1C267.3,30.4,266.6,31.4,265.5,31.9z"/>
	<path d="M299.3,23.5c7.1,0,10.7,3.8,12.2,8.6h1.3c-1-4.3-4.5-9.7-13.4-9.7c-8.9,0-14.8,7-14.8,16.1c0,8.5,5.1,15.7,14.9,15.7
		c7.3,0,11.4-3.7,13.3-9.5h-1.3c-2,5.2-5.6,8.3-11.9,8.3c-8.7,0-13.7-6.4-13.7-14.6C286,29.4,291.8,23.5,299.3,23.5z"/>
	<path d="M347,23.2h-1.3v14.3c0,8.6-3.5,15.3-12.5,15.3c-7.8,0-10.7-5.1-10.7-11.1V23.2h-1.3v18.4c0,9.8,6.2,12.4,11.9,12.4
		c6.8,0,10.6-3,12.6-9.4c-0.1,2.7,0,7.6,0.1,8.6h1.3c0-1.3-0.1-6.3-0.1-9.3V23.2z"/>
	<path d="M359.4,32.1c0.1-2.3-0.1-7.4-0.1-8.9h-1.2c0.1,2.2,0.1,5.6,0.1,10.3v19.9h1.3V37.2c0-7.1,5.8-13.3,12.5-13.4v-1.3
		C365.5,22.6,360.8,27.5,359.4,32.1z"/>
	<path d="M404.1,37c0-5.8-2.9-14.6-14.2-14.6c-9,0-14.7,6.7-14.7,16c0,7.3,4,15.8,14.7,15.8c7.2,0,11.7-3.7,13.6-8.3h-1.4
		c-1.8,4-5.8,7.2-12.2,7.2c-7.6,0-13.3-5.3-13.4-14.8h27.6C404.1,37.7,404.1,37.3,404.1,37z M376.6,37.1c0.3-7.5,5.2-13.6,13.2-13.6
		c9.1,0,12.8,6.2,13.1,13.6H376.6z"/>
	<path class="st1" d="M264.2,26.1c-1.7,0-3.1,1.4-3.1,3.1c0,1.2,0.7,2.3,1.8,2.8v2.5c0,0.7,0.6,1.3,1.3,1.3c0.7,0,1.3-0.6,1.3-1.3
		v-2.5c1-0.5,1.8-1.5,1.8-2.8C267.3,27.4,265.9,26.1,264.2,26.1z"/>
</g>
</svg>
